<svg xmlns="http://www.w3.org/2000/svg" version="1.1" xmlns:xlink="http://www.w3.org/1999/xlink" width="1000" height="1000"><g clip-path="url(#SvgjsClipPath1073)"><rect width="1000" height="1000" fill="#ffffff"></rect><g transform="matrix(15.625,0,0,15.625,0,0)"><svg xmlns="http://www.w3.org/2000/svg" version="1.1" xmlns:xlink="http://www.w3.org/1999/xlink" width="64" height="64"><svg xmlns="http://www.w3.org/2000/svg" viewBox="0 0 64 64" fill="none" stroke="#0d9488" stroke-width="1.5" stroke-linecap="round" stroke-linejoin="round"><path d="M8 51q5.6-3 11-4.7m3.8-1A45 45 0 0 1 56 51"></path><path d="M34.6 44v-8.9c0-5 1.8-9.8 5-13.5L42 19m-7.4 15.2-.6-4.9q-.4-3.8-3.2-6.5L23 15.4"></path><path d="M31.6 23.5s1.4-5.3-1.4-9.7C28.2 10.5 20 8.7 16 8a2 2 0 0 0-2.4 2c0 3 .5 8.4 4.5 12.7 6 6.3 11.2 3.8 11.2 3.8m8.2-2.5s-1.8-4-.2-7.7c1.1-2.7 6.7-5.1 9.8-6.3a2 2 0 0 1 2.7 1.6c.4 2.4.4 6.3-2 9.9-3.7 5.7-8 4.5-8 4.5M28 20.1h-5.6"></path></svg></svg></g></g><defs><clipPath id="SvgjsClipPath1073"><rect width="1000" height="1000" x="0" y="0" rx="250" ry="250"></rect></clipPath></defs></svg>