<svg xmlns="http://www.w3.org/2000/svg" viewBox="0 0 681 686.7"><g data-name="Group 25" transform="translate(-228 -105)"><ellipse data-name="Ellipse 92" cx="340.5" cy="20" rx="340.5" ry="20" transform="translate(228 751.7)" fill="#e6e6e6"/><path data-name="Path 607" d="M614 263.3h-3.7V163.1a58 58 0 0 0-58-58H339.7a58 58 0 0 0-58.1 58v550.6a58 58 0 0 0 58 58h212.7a58 58 0 0 0 58-58V334.8h3.7Z" fill="#3f3d56"/><path data-name="Path 608" d="M598 163.4v549.9a43.4 43.4 0 0 1-43.4 43.3H341a43.4 43.4 0 0 1-43.4-43.3v-550A43.4 43.4 0 0 1 341 120h25.9a20.6 20.6 0 0 0 19 28.4h121.9a20.6 20.6 0 0 0 19-28.4h27.8a43.4 43.4 0 0 1 43.4 43.3" fill="#fff"/><path data-name="Path 609" d="M396.3 579.7h-4.5l1.5-87.8h1.5Z" fill="#e6e6e6"/><path data-name="Path 610" d="m400 436.6 7.3-11.2a168 168 0 0 0-7.5-17.4l-4.6 3.8 3.7-5.7c-3.6-7-6.4-11.4-6.4-11.4s-14.5 23-19.4 47.2l9.3 14.4-10.3-8.3a68 68 0 0 0-.5 8.5c0 28.7 9.4 52 21 52s21-23.3 21-52c0-9-2.1-18.2-4.9-26.9Z" fill="#ccc"/><path data-name="Path 611" d="M513.2 579.7h-4.4l1.5-87.8h1.5Z" fill="#e6e6e6"/><path data-name="Path 612" d="m517 436.6 7.2-11.2a168 168 0 0 0-7.4-17.4l-4.7 3.8 3.7-5.7c-3.5-7-6.3-11.4-6.3-11.4s-14.5 23-19.4 47.2l9.3 14.4-10.3-8.3a68 68 0 0 0-.6 8.5c0 28.7 9.4 52 21 52s21-23.3 21-52c0-9-2-18.2-4.8-26.9Z" fill="#ccc"/><circle data-name="Ellipse 94" cx="41.3" cy="41.3" r="41.3" transform="translate(351.6 206.2)" fill="#e6e6e6"/><path data-name="Path 613" d="M450 567h-9.2l3-181h3.2Z" fill="#e6e6e6"/><path data-name="Path 614" d="m457.8 272 15-23.1a347 347 0 0 0-15.4-36l-9.7 7.9 7.7-11.8c-7.3-14.4-13-23.4-13-23.4s-30 47.2-40 97.2l19.1 29.7-21.2-17.2a140 140 0 0 0-1.2 17.6c-.1 59.4 19.3 107.4 43.2 107.4s43.2-48 43.2-107.3c0-18.4-4.1-37.6-9.8-55.3Z" fill="#ccc"/><path data-name="Path 615" d="M597.9 593v123c0 25-19.4 45.1-43.3 45.1H340.9c-24 0-43.3-20.2-43.3-45.1V605c37-45.3 90.6-72.4 147.6-74.7s112.5 20.5 152.7 62.7" fill="#e6e6e6"/><circle data-name="Ellipse 95" cx="63.2" cy="63.2" r="63.2" transform="translate(384.8 588)" fill="#0d9488" opacity=".2"/><circle data-name="Ellipse 96" cx="50.9" cy="50.9" r="50.9" transform="translate(397.1 600.2)" fill="#0d9488"/><path data-name="Path 616" d="m442 672.9-17.9-23 10.5-8.2 8.5 11 28.7-30.3 9.6 9Z" fill="#fff"/><g data-name="Group 24"><circle data-name="Ellipse 97" cx="33" cy="33" r="33" transform="translate(685.5 506)" fill="#2f2e41"/><path data-name="Path 624" d="m731.9 724.2 2.5 12 47.5-4-3.8-17.8Z" fill="#ffb8b8"/><path data-name="Path 625" d="m728.2 761.7-8-37.6 14.6-3.1 4.9 23a15 15 0 0 1-11.5 17.8" fill="#2f2e41"/><path data-name="Path 626" d="m702.1 723.6-5.3 11-45.1-15.3 7.9-16.3Z" fill="#ffb8b8"/><path data-name="Path 627" d="m689.9 741.2 10.3-21.4 13.3 6.5-16.8 34.6a15 15 0 0 1-6.8-19.7" fill="#2f2e41"/><path data-name="Path 628" d="M613.3 701.8a10.7 10.7 0 0 0 12.7-10.4l74.3-68.5-18.3-14.5-67.5 72a10.8 10.8 0 0 0-1.2 21.4" fill="#ffb8b8"/><circle data-name="Ellipse 98" cx="24.6" cy="24.6" r="24.6" transform="translate(689.8 524.3)" fill="#ffb8b8"/><path data-name="Path 629" d="M736.4 693.3c-17.2 0-38-3.6-50.8-18.5l-.3-.3.3-.3c.1-.2 9.5-11 .1-30.1l-12.9 4-12.9-17 7.2-21.4 29.1-23.5a27 27 0 0 1 14.6-5.8 80 80 0 0 0 27.8-8 28 28 0 0 1 12.8-2.7h.6a10 10 0 0 1 9.6 10.7c-2 25.6-5.4 87.6 4.8 108.9l.3.5-.6.2a136 136 0 0 1-29.7 3.3" fill="#0d9488"/><path data-name="Path 630" d="M689 674.4s-65-6-72 13 1 28 13 32 41 9 41 9l13-16 34 2s37.9 22 48.3 45.6a31 31 0 0 0 25.8 18.2c8.4.6 15.9-2.6 15.9-15.7 0-30-42-73-42-73Z" fill="#2f2e41"/><path data-name="Path 631" d="M639.5 704s17-5 44 8" fill="#2f2e41"/><path data-name="Path 632" d="M689.8 533.3a73 73 0 0 0 31.6 10.4l-3.3-4a25 25 0 0 0 7.6 1.5 8 8 0 0 0 6.7-3.2 8 8 0 0 0 .5-7.1 15 15 0 0 0-4.6-5.7 27 27 0 0 0-25.4-4.6 16 16 0 0 0-7.6 4.9 9 9 0 0 0-1.8 8.6" fill="#2f2e41"/><path data-name="Path 633" d="M718.3 513.6a76 76 0 0 1 19.1-26.5c5.3-4.7 11.5-8.7 18.5-10s14.8 1 19.1 6.5c3.5 4.7 4.2 10.8 3.8 16.6s-1.7 11.5-1.6 17.3a35.5 35.5 0 0 0 50.5 31.4c-6 3.3-10.7 8.6-16.3 12.6s-13 6.7-19.3 4c-6.7-2.7-9.8-10.3-12.2-17.2l-10.7-30.7c-1.8-5.2-3.7-10.5-7.5-14.6s-9.7-6.6-14.9-4.5c-3.8 1.5-6.4 5.2-8.6 8.8s-4.5 7.3-8.3 9.2-9.3.7-10.5-3.3" fill="#2f2e41"/><path data-name="Path 636" d="M726.7 693.4h-1.2a11 11 0 0 1 1.2-22h1.5l33.6-35.7-3.5-11.6 17.6-8 4.9 12.1a20.5 20.5 0 0 1-6.2 23.7l-37 29.4.1 1a11 11 0 0 1-3.6 8.3 11 11 0 0 1-7.4 2.8" fill="#ffb8b8"/><path data-name="Path 637" d="M753 574.4a9.5 9.5 0 0 1 12.6 5.2l17.4 43.9-27 18Z" fill="#0d9488"/></g></g></svg>
