<svg xmlns="http://www.w3.org/2000/svg" viewBox="0 0 720 722.54"><g data-name="Group 64"><g data-name="Group 63" fill="#f2f2f2"><path data-name="Path 1" d="m131.75 643.26-4.37-17.25a224 224 0 0 0-23.76-8.52l-.55 8.01-2.24-8.83c-10.01-2.86-16.82-4.12-16.82-4.12s9.2 34.99 28.5 61.74l22.48 3.95-17.47 2.51a91 91 0 0 0 7.82 8.28c28.07 26.06 59.33 38.02 69.83 26.7s-3.75-41.6-31.82-67.65c-8.7-8.08-19.63-14.56-30.58-19.67Z"/><path data-name="Path 2" d="m173.33 624.52 5.17-17.02a224 224 0 0 0-15.93-19.58l-4.61 6.58 2.64-8.72c-7.09-7.62-12.27-12.22-12.27-12.22s-10.2 34.7-7.52 67.58l17.21 15-16.26-6.87a91 91 0 0 0 2.41 11.12c10.56 36.82 31.15 63.22 45.98 58.96s18.3-37.55 7.73-74.36c-3.27-11.42-9.28-22.62-16-32.64Z"/></g><g data-name="Group 62" transform="translate(-555.96 -166.46)"><path data-name="Path 22" d="M1094.98 337.56h-3.96V229.19a62.73 62.73 0 0 0-62.72-62.73H798.69a62.73 62.73 0 0 0-62.73 62.73v594.55a62.73 62.73 0 0 0 62.73 62.72h229.61a62.73 62.73 0 0 0 62.72-62.72V414.7h3.96Z" fill="#e6e6e6"/><path data-name="Path 23" d="M1030.82 182.78h-29.97a22.26 22.26 0 0 1-20.6 30.65H848.7a22.25 22.25 0 0 1-20.61-30.65h-28a46.84 46.84 0 0 0-46.83 46.84V823.3a46.84 46.84 0 0 0 46.84 46.85h230.71a46.84 46.84 0 0 0 46.85-46.85V229.62a46.84 46.84 0 0 0-46.85-46.84" fill="#fff"/><path data-name="Path 6" d="M886.07 419.27a23.6 23.6 0 0 1 11.83-20.47 23.64 23.64 0 1 0 0 40.94 23.6 23.6 0 0 1-11.82-20.47Z" fill="#ccc"/><path data-name="Path 7" d="M915.79 419.27a23.6 23.6 0 0 1 11.83-20.47 23.64 23.64 0 1 0 0 40.94 23.6 23.6 0 0 1-11.83-20.47" fill="#ccc"/><circle data-name="Ellipse 1" cx="23.64" cy="23.64" r="23.64" transform="translate(921.19 395.63)" fill="#0d9488"/><path data-name="Path 8" d="M984.33 493.09H846.57a4.95 4.95 0 0 1-4.95-4.94V350.37a4.95 4.95 0 0 1 4.95-4.94h137.76a4.95 4.95 0 0 1 4.95 4.95v137.76a4.95 4.95 0 0 1-4.95 4.95M846.57 347.42a2.97 2.97 0 0 0-2.97 2.96v137.77a2.97 2.97 0 0 0 2.97 2.96h137.76a2.97 2.97 0 0 0 2.97-2.96V350.38a2.97 2.97 0 0 0-2.97-2.96Z" fill="#ccc"/><path data-name="Rectangle 1" fill="#ccc" d="M803.8 598.7h211.28v1.98H803.8z"/><circle data-name="Ellipse 2" cx="6.67" cy="6.67" r="6.67" transform="translate(803.8 573)" fill="#0d9488"/><path data-name="Rectangle 2" fill="#ccc" d="M803.8 665.42h211.28v1.98H803.8z"/><circle data-name="Ellipse 3" cx="6.67" cy="6.67" r="6.67" transform="translate(803.8 639.72)" fill="#0d9488"/><path data-name="Path 977" d="M1011.22 741.4h-66.77a4.36 4.36 0 0 1-4.35-4.35v-23.4a4.36 4.36 0 0 1 4.35-4.35h66.77a4.36 4.36 0 0 1 4.35 4.35v23.4a4.36 4.36 0 0 1-4.35 4.35" fill="#0d9488"/><circle data-name="Ellipse 7" cx="6.67" cy="6.67" r="6.67" transform="translate(825.57 573)" fill="#0d9488"/><circle data-name="Ellipse 8" cx="6.67" cy="6.67" r="6.67" transform="translate(847.34 573)" fill="#0d9488"/><circle data-name="Ellipse 9" cx="6.67" cy="6.67" r="6.67" transform="translate(825.57 639.72)" fill="#0d9488"/><circle data-name="Ellipse 10" cx="6.67" cy="6.67" r="6.67" transform="translate(847.34 639.72)" fill="#0d9488"/></g><path data-name="Path 88" d="M717.23 722.54H2.78c-1.53 0-2.77-.55-2.77-1.22s1.24-1.22 2.77-1.22h714.47c1.52 0 2.76.55 2.76 1.22s-1.24 1.22-2.76 1.22" fill="#e6e6e6"/><g data-name="Group 61" transform="translate(-21745.08 -2244.1)"><path data-name="Path 92" d="m22370.82 2697.01-16.8 33.25-50.22 22.84c-5.36 9.06-22.4 9.76-23.65 3.9-1.39-6.58 20.7-17.16 20.7-17.16l42.01-28.42 3.68-24.46Z" fill="#ffb9b9"/><path data-name="Path 93" d="m22368.85 2920.19 3.1 24.78-17.97 1.24-1.86-26.02Z" fill="#ffb9b9"/><path data-name="Path 94" d="M22366.37 2941.25a49 49 0 0 0 4.43-5.42c2.58-3.57 4.86 14.71 4.86 14.71s2.48 7.44 1.86 11.16-14.87 3.72-17.35 3.1-14.87 0-14.87 0h-18.58c-16.11-7.44 0-12.4 0-12.4 4.95-.62 21.68-16.1 21.68-16.1l3.72-6.82c2.48-.62 4.96 8.67 4.96 8.67Z" fill="#090814"/><path data-name="Path 95" d="m22415.32 2920.5 3.1 24.78-17.97 1.24-1.86-26.02Z" fill="#ffb9b9"/><path data-name="Path 96" d="M22412.84 2941.56a49 49 0 0 0 4.44-5.42c2.57-3.56 4.86 14.72 4.86 14.72s2.48 6.81 1.86 10.53-14.87 3.72-17.35 3.1-14.87.62-14.87.62h-18.59c-16.1-7.44 0-12.4 0-12.4 4.96-.61 21.69-16.1 21.69-16.1l3.72-6.82c2.47-.62 4.95 8.67 4.95 8.67Z" fill="#090814"/><path data-name="Path 97" d="M22394.87 2760.64c2.48 3.1 1.24 13.63 1.24 13.63s4.34 34.07 2.48 37.17 1.23 5.58 3.1 9.92 3.71 14.87 3.71 14.87c10.54 8.67 9.92 48.32 9.92 48.32l3.71 35.32c-1.23 3.72-18.58 4.34-21.06 3.72s-9.92-56.38-9.92-56.38l-16.72-31.6s1.23 84.26 1.23 87.98-16.72 1.86-20.44 1.86-3.72-61.96-3.72-61.96l-3.72-16.11-19.83-73.73v-8.68l3.1-4.34s64.44-3.1 66.92 0" fill="#090814"/><circle data-name="Ellipse 11" cx="19.21" cy="19.21" r="19.21" transform="translate(22348.4 2581.57)" fill="#ffb9b9"/><path data-name="Path 98" d="M22358.01 2609.77c3.9 8.67 1.59 20.77-6.2 34.07l31.6-14.87-4.96-4.33 1.24-12.4Z" fill="#ffb9b9"/><path data-name="Path 99" d="M22358 2629.59c-4.13 2.46-6.6 6.98-8.03 11.58a110 110 0 0 0-4.72 26.21l-1.5 26.64-18.58 70.64c16.1 13.63 25.4 10.53 47.08-.62s24.17 3.72 24.17 3.72 1.86-.62 0-2.48 0 0 1.86-1.86 0 0-.62-1.86 0-.62.62-1.23-2.48-6.2-2.48-6.2l4.96-46.47 6.2-65.68c-7.44-9.3-28.5-17.35-28.5-17.35l-19.22 13.63c-6.2 2.48-1.23-7.43-1.23-7.43Z" fill="#0d9488"/><path data-name="Path 100" d="m22417.18 2681.33 2.48 37.17-31.6 45.23c0 10.54-5.58 13.02-5.58 13.02a82 82 0 0 1-5.57-10.54c-3.1-6.81 1.86-12.39 1.86-12.39l21.68-45.85-9.3-22.92Z" fill="#ffb9b9"/><path data-name="Path 101" d="M22406.65 2642.3c10.53 3.71 12.4 43.99 12.4 43.99-12.4-6.82-27.27 4.33-27.27 4.33s-3.1-10.53-6.82-24.16a23.7 23.7 0 0 1 4.96-22.3s6.2-5.58 16.73-1.86" fill="#0d9488"/><path data-name="Path 102" d="M22385.27 2606.66c-2.45-1.95-5.78 1.6-5.78 1.6l-1.96-17.6s-12.22 1.47-20.05-.5-9.05 7.1-9.05 7.1a63 63 0 0 1-.24-11c.49-4.4 6.84-8.8 18.1-11.74s17.1 9.78 17.1 9.78c7.83 3.91 4.32 24.32 1.88 22.36" fill="#090814"/></g></g></svg>
