<svg xmlns="http://www.w3.org/2000/svg" viewBox="0 0 550.6 412.4"><path d="M550.6 411.3q0 1-1.2 1.1H1.2q-1.1-.1-1.2-1.1 0-1.3 1.2-1.2h548.2q1.1 0 1.2 1.2" fill="#2e2e43"/><path d="M436.7 84.8H114a8 8 0 0 1-8.1-8.1V51.8a8 8 0 0 1 8-8h322.7a8 8 0 0 1 8 8v24.9a8 8 0 0 1-8 8m.1 153.3H114a8 8 0 0 1-8.1-8.1v-24.8a8 8 0 0 1 8-8.1h322.7a8 8 0 0 1 8 8v25a8 8 0 0 1-8 8" fill="#fff" stroke="#bab7c9" stroke-linecap="round" stroke-linejoin="round" stroke-width="2"/><path d="M207.7 348H113a8 8 0 0 1-8.1-8.1v-24.8a8 8 0 0 1 8-8.1h94.7a8 8 0 0 1 8 8v25a8 8 0 0 1-8 8" fill="#0d9488"/><path fill="none" stroke="#bab7c9" stroke-linecap="round" stroke-linejoin="round" stroke-width="2" d="M106.7 1h70.7m-70.7 153.2h131.4"/><path fill="#f1a1a4" d="m386.5 374.3 11.1-7 10 15.7-11 7zm-24.2-219.2-14 4.8-.2-20.3 12.8-.1z"/><circle cx="349.7" cy="131.2" r="14.1" fill="#f1a1a4"/><path d="M353.6 129.7c-2.4 0-4-2.4-4.9-4.5-1-2.2-2-4.7-4.1-5.6-1.8-.7-4.9 4.3-6.3 3-1.5-1.3-.1-8.4 1.4-9.7s3.7-1.6 5.7-1.7q7.4-.5 14.6 1c3 .6 6 1.5 8.2 3.6 2.8 2.7 3.5 6.8 3.7 10.7s.1 8-1.8 11.5c-1.8 3.4-5.8 6-9.6 5.2-.5-2.1 0-4.3 0-6.4.2-2 0-4.4-1.3-6s-4.1-2.4-5.6-.8" fill="#2f2e43"/><path d="M370.9 134.4c1.4-1 3-2 4.8-1.7 1.9.2 3.5 1.7 4 3.5s0 3.8-1.2 5.3-2.8 2.6-4.6 3a5 5 0 0 1-3.3 0 3.3 3.3 0 0 1-1.7-4" fill="#2f2e43"/><path d="M318.6 267.2c-.9 4.6.9 8.8 4 9.3 3 .6 6.2-2.7 7-7.3q.7-2.9-.2-5.6l10.8-72.5-14.5-2.5-4.8 73.5q-1.8 2.3-2.3 5" fill="#f1a1a4"/><path d="m348 150.6-9.9.1c-7 1.1-8.9 4.9-10.4 11.8a196 196 0 0 0-4.6 24.9c1 .3 18 8 26.5 6.1z" fill="#0d9488"/><path fill="#f1a1a4" d="M347 381h13.2l.2 18.6-13.2.2z"/><path d="M334.5 411.3h-3.6c-3.5-.3-6.9-2.9-8.6-4.4q-1.1-1-.6-2.7.5-1 1.5-1.4l9.3-2.7 14.9-10.3.1.3c0 .1 1.6 2.7 2.1 4.5q.3 1-.1 1.7l-.7.6c.3.3 1.1.9 3.7 1.3 3.9.5 4.6-3.5 4.7-3.6v-.2h.1q2.8-1.8 3.3-1.7c.3 0 .7.2 1.9 11 0 .3.9 2.8.4 5.2-.6 2.6-11.9 1.8-14.1 1.7-.1 0-8.6.7-14.4.7m48.8-3.1q-2.4 0-4-.3-1.6-.4-2-2 0-1 .6-2l6.4-7.2 7.2-16.6.3.2a27 27 0 0 1 4.2 2.7q.7.7.7 1.5 0 .6-.2.9c.4 0 1.4.1 3.8-1 3.6-1.5 2.1-5.3 2-5.4v-.2q1.5-3 2-3.2c.3 0 .6-.2 7.4 8.3.3.2 2.2 2 3 4.2 1 2.5-9 7.8-11 8.9 0 0-10.5 7.8-14.8 10q-2.7 1.3-5.6 1.2m-15-184-37 .4-3 34.4 16.1 127 18.9-.3-8.4-73.3 31.4 66 16.6-12-24.6-61.6s8-54 1.1-67.3c-6.8-13.4-11.1-13.3-11.1-13.3" fill="#2f2e43"/><path fill="#0d9488" d="m386.6 226.1-58.7.6 16.7-76.1 25.6-.3z"/><path d="M392.3 266.4c1 4.6-.7 8.8-3.7 9.4s-6.3-2.6-7.3-7.2q-.6-2.8.1-5.6L369 190.8l14.5-2.9 6.4 73.4q1.8 2.3 2.4 5" fill="#f1a1a4"/><path d="m360.3 150.5 10-.2c7 1 8.9 4.7 10.6 11.6 2.5 10.6 5.8 24.6 5.2 24.8-1 .3-17.8 8.4-26.4 6.7z" fill="#0d9488"/></svg>
